<mxfile modified="2023-03-15T22:18:28.583Z" host="Electron" agent="5.0 (Windows NT 10.0; Win64; x64) AppleWebKit/537.36 (KHTML, like Gecko) draw.io/20.3.0 Chrome/104.0.5112.114 Electron/20.1.3 Safari/537.36" etag="b0nt8n_Kxc0cX7ccmvfD" compressed="false" version="20.3.0" type="device">
  <diagram id="LFFSuM9itQladwlMdYvx" name="Information/Documentation/Types">
    <mxGraphModel dx="782" dy="517" grid="1" gridSize="10" guides="1" tooltips="1" connect="1" arrows="1" fold="1" page="1" pageScale="1" pageWidth="827" pageHeight="1169" math="0" shadow="0">
      <root>
        <mxCell id="WKSHqu9oxkMPqmvNoZ5K-0" />
        <mxCell id="WKSHqu9oxkMPqmvNoZ5K-1" parent="WKSHqu9oxkMPqmvNoZ5K-0" />
        <mxCell id="Ch27QJfazuT4662C9EeC-9" value="" style="endArrow=none;html=1;" parent="WKSHqu9oxkMPqmvNoZ5K-1" target="Ch27QJfazuT4662C9EeC-8" edge="1">
          <mxGeometry width="50" height="50" relative="1" as="geometry">
            <mxPoint x="370" y="440" as="sourcePoint" />
            <mxPoint x="370" y="200" as="targetPoint" />
          </mxGeometry>
        </mxCell>
        <mxCell id="WKSHqu9oxkMPqmvNoZ5K-2" value="Explanations / Discussions" style="rounded=0;whiteSpace=wrap;html=1;" parent="WKSHqu9oxkMPqmvNoZ5K-1" vertex="1">
          <mxGeometry x="250" y="360" width="80" height="40" as="geometry" />
        </mxCell>
        <mxCell id="WKSHqu9oxkMPqmvNoZ5K-3" value="Tutorials" style="rounded=0;whiteSpace=wrap;html=1;" parent="WKSHqu9oxkMPqmvNoZ5K-1" vertex="1">
          <mxGeometry x="250" y="240" width="80" height="40" as="geometry" />
        </mxCell>
        <mxCell id="WKSHqu9oxkMPqmvNoZ5K-4" value="How To Guides" style="rounded=0;whiteSpace=wrap;html=1;" parent="WKSHqu9oxkMPqmvNoZ5K-1" vertex="1">
          <mxGeometry x="410" y="240" width="80" height="40" as="geometry" />
        </mxCell>
        <mxCell id="Ch27QJfazuT4662C9EeC-0" value="[Technical]&lt;br&gt;Reference" style="rounded=0;whiteSpace=wrap;html=1;" parent="WKSHqu9oxkMPqmvNoZ5K-1" vertex="1">
          <mxGeometry x="410" y="360" width="80" height="40" as="geometry" />
        </mxCell>
        <mxCell id="Ch27QJfazuT4662C9EeC-1" value="Learning Oriented" style="text;html=1;strokeColor=none;fillColor=none;align=right;verticalAlign=middle;whiteSpace=wrap;rounded=0;" parent="WKSHqu9oxkMPqmvNoZ5K-1" vertex="1">
          <mxGeometry x="170" y="280" width="160" height="20" as="geometry" />
        </mxCell>
        <mxCell id="Ch27QJfazuT4662C9EeC-3" value="Understanding Oriented" style="text;html=1;strokeColor=none;fillColor=none;align=right;verticalAlign=middle;whiteSpace=wrap;rounded=0;" parent="WKSHqu9oxkMPqmvNoZ5K-1" vertex="1">
          <mxGeometry x="170" y="340" width="160" height="20" as="geometry" />
        </mxCell>
        <mxCell id="Ch27QJfazuT4662C9EeC-4" value="Goal Oriented" style="text;html=1;strokeColor=none;fillColor=none;align=left;verticalAlign=middle;whiteSpace=wrap;rounded=0;" parent="WKSHqu9oxkMPqmvNoZ5K-1" vertex="1">
          <mxGeometry x="410" y="280" width="160" height="20" as="geometry" />
        </mxCell>
        <mxCell id="Ch27QJfazuT4662C9EeC-5" value="Information Oriented" style="text;html=1;strokeColor=none;fillColor=none;align=left;verticalAlign=middle;whiteSpace=wrap;rounded=0;" parent="WKSHqu9oxkMPqmvNoZ5K-1" vertex="1">
          <mxGeometry x="410" y="340" width="160" height="20" as="geometry" />
        </mxCell>
        <mxCell id="Ch27QJfazuT4662C9EeC-6" value="" style="endArrow=none;html=1;" parent="WKSHqu9oxkMPqmvNoZ5K-1" edge="1">
          <mxGeometry width="50" height="50" relative="1" as="geometry">
            <mxPoint x="210" y="320" as="sourcePoint" />
            <mxPoint x="570" y="320" as="targetPoint" />
          </mxGeometry>
        </mxCell>
        <mxCell id="Ch27QJfazuT4662C9EeC-12" value="For Studying" style="edgeLabel;html=1;align=center;verticalAlign=middle;resizable=0;points=[];" parent="Ch27QJfazuT4662C9EeC-6" vertex="1" connectable="0">
          <mxGeometry x="-0.6642" relative="1" as="geometry">
            <mxPoint x="20" as="offset" />
          </mxGeometry>
        </mxCell>
        <mxCell id="Ch27QJfazuT4662C9EeC-13" value="For Execution" style="edgeLabel;html=1;align=center;verticalAlign=middle;resizable=0;points=[];" parent="Ch27QJfazuT4662C9EeC-6" vertex="1" connectable="0">
          <mxGeometry x="-0.6642" relative="1" as="geometry">
            <mxPoint x="180" as="offset" />
          </mxGeometry>
        </mxCell>
        <mxCell id="Ch27QJfazuT4662C9EeC-7" value="" style="endArrow=none;html=1;" parent="WKSHqu9oxkMPqmvNoZ5K-1" source="Ch27QJfazuT4662C9EeC-8" edge="1">
          <mxGeometry width="50" height="50" relative="1" as="geometry">
            <mxPoint x="370" y="440" as="sourcePoint" />
            <mxPoint x="370" y="200" as="targetPoint" />
          </mxGeometry>
        </mxCell>
        <mxCell id="Ch27QJfazuT4662C9EeC-8" value="Practice" style="text;html=1;strokeColor=none;fillColor=none;align=center;verticalAlign=middle;whiteSpace=wrap;rounded=0;rotation=-90;" parent="WKSHqu9oxkMPqmvNoZ5K-1" vertex="1">
          <mxGeometry x="350" y="240" width="40" height="20" as="geometry" />
        </mxCell>
        <mxCell id="Ch27QJfazuT4662C9EeC-10" value="Theory" style="text;html=1;strokeColor=none;fillColor=none;align=center;verticalAlign=middle;whiteSpace=wrap;rounded=0;rotation=-90;labelBackgroundColor=#ffffff;" parent="WKSHqu9oxkMPqmvNoZ5K-1" vertex="1">
          <mxGeometry x="350" y="360" width="40" height="20" as="geometry" />
        </mxCell>
        <mxCell id="Ch27QJfazuT4662C9EeC-14" value="Get reader &lt;i&gt;doing&lt;/i&gt; it" style="text;html=1;strokeColor=none;fillColor=none;align=right;verticalAlign=middle;whiteSpace=wrap;rounded=0;labelBackgroundColor=#ffffff;" parent="WKSHqu9oxkMPqmvNoZ5K-1" vertex="1">
          <mxGeometry x="80" y="210" width="120" height="20" as="geometry" />
        </mxCell>
        <mxCell id="Ch27QJfazuT4662C9EeC-15" value="Quick feedback" style="text;html=1;strokeColor=none;fillColor=none;align=right;verticalAlign=middle;whiteSpace=wrap;rounded=0;labelBackgroundColor=#ffffff;" parent="WKSHqu9oxkMPqmvNoZ5K-1" vertex="1">
          <mxGeometry x="80" y="230" width="120" height="20" as="geometry" />
        </mxCell>
        <mxCell id="Ch27QJfazuT4662C9EeC-16" value="Repeatable" style="text;html=1;strokeColor=none;fillColor=none;align=right;verticalAlign=middle;whiteSpace=wrap;rounded=0;labelBackgroundColor=#ffffff;" parent="WKSHqu9oxkMPqmvNoZ5K-1" vertex="1">
          <mxGeometry x="80" y="251" width="120" height="20" as="geometry" />
        </mxCell>
        <mxCell id="Ch27QJfazuT4662C9EeC-17" value="Concrete Examples" style="text;html=1;strokeColor=none;fillColor=none;align=right;verticalAlign=middle;whiteSpace=wrap;rounded=0;labelBackgroundColor=#ffffff;" parent="WKSHqu9oxkMPqmvNoZ5K-1" vertex="1">
          <mxGeometry x="80" y="271" width="120" height="20" as="geometry" />
        </mxCell>
        <mxCell id="Ch27QJfazuT4662C9EeC-18" value="Minimal" style="text;html=1;strokeColor=none;fillColor=none;align=right;verticalAlign=middle;whiteSpace=wrap;rounded=0;labelBackgroundColor=#ffffff;" parent="WKSHqu9oxkMPqmvNoZ5K-1" vertex="1">
          <mxGeometry x="80" y="291" width="120" height="20" as="geometry" />
        </mxCell>
        <mxCell id="Ch27QJfazuT4662C9EeC-19" value="Series of Steps" style="text;html=1;strokeColor=none;fillColor=none;align=left;verticalAlign=middle;whiteSpace=wrap;rounded=0;labelBackgroundColor=#ffffff;" parent="WKSHqu9oxkMPqmvNoZ5K-1" vertex="1">
          <mxGeometry x="520" y="240" width="150" height="20" as="geometry" />
        </mxCell>
        <mxCell id="Ch27QJfazuT4662C9EeC-20" value="Focus on Results" style="text;html=1;strokeColor=none;fillColor=none;align=left;verticalAlign=middle;whiteSpace=wrap;rounded=0;labelBackgroundColor=#ffffff;" parent="WKSHqu9oxkMPqmvNoZ5K-1" vertex="1">
          <mxGeometry x="520" y="260" width="150" height="20" as="geometry" />
        </mxCell>
        <mxCell id="Ch27QJfazuT4662C9EeC-21" value="Solve a specific problem" style="text;html=1;strokeColor=none;fillColor=none;align=left;verticalAlign=middle;whiteSpace=wrap;rounded=0;labelBackgroundColor=#ffffff;" parent="WKSHqu9oxkMPqmvNoZ5K-1" vertex="1">
          <mxGeometry x="520" y="220" width="150" height="20" as="geometry" />
        </mxCell>
        <mxCell id="Ch27QJfazuT4662C9EeC-22" value="Don&#39;t Explain Concepts" style="text;html=1;strokeColor=none;fillColor=none;align=left;verticalAlign=middle;whiteSpace=wrap;rounded=0;labelBackgroundColor=#ffffff;" parent="WKSHqu9oxkMPqmvNoZ5K-1" vertex="1">
          <mxGeometry x="520" y="280" width="150" height="20" as="geometry" />
        </mxCell>
        <mxCell id="Ch27QJfazuT4662C9EeC-23" value="Describe" style="text;html=1;strokeColor=none;fillColor=none;align=left;verticalAlign=middle;whiteSpace=wrap;rounded=0;labelBackgroundColor=#ffffff;" parent="WKSHqu9oxkMPqmvNoZ5K-1" vertex="1">
          <mxGeometry x="520" y="361" width="150" height="20" as="geometry" />
        </mxCell>
        <mxCell id="Ch27QJfazuT4662C9EeC-24" value="Accurate" style="text;html=1;strokeColor=none;fillColor=none;align=left;verticalAlign=middle;whiteSpace=wrap;rounded=0;labelBackgroundColor=#ffffff;" parent="WKSHqu9oxkMPqmvNoZ5K-1" vertex="1">
          <mxGeometry x="520" y="381" width="150" height="20" as="geometry" />
        </mxCell>
        <mxCell id="Ch27QJfazuT4662C9EeC-25" value="Consistent" style="text;html=1;strokeColor=none;fillColor=none;align=left;verticalAlign=middle;whiteSpace=wrap;rounded=0;labelBackgroundColor=#ffffff;" parent="WKSHqu9oxkMPqmvNoZ5K-1" vertex="1">
          <mxGeometry x="520" y="401" width="150" height="20" as="geometry" />
        </mxCell>
        <mxCell id="Ch27QJfazuT4662C9EeC-26" value="Structure matches Product" style="text;html=1;strokeColor=none;fillColor=none;align=left;verticalAlign=middle;whiteSpace=wrap;rounded=0;labelBackgroundColor=#ffffff;" parent="WKSHqu9oxkMPqmvNoZ5K-1" vertex="1">
          <mxGeometry x="520" y="421" width="150" height="20" as="geometry" />
        </mxCell>
        <mxCell id="Ch27QJfazuT4662C9EeC-27" value="Describe Context" style="text;html=1;strokeColor=none;fillColor=none;align=right;verticalAlign=middle;whiteSpace=wrap;rounded=0;labelBackgroundColor=#ffffff;" parent="WKSHqu9oxkMPqmvNoZ5K-1" vertex="1">
          <mxGeometry x="80" y="361" width="120" height="20" as="geometry" />
        </mxCell>
        <mxCell id="Ch27QJfazuT4662C9EeC-28" value="Discuss Options" style="text;html=1;strokeColor=none;fillColor=none;align=right;verticalAlign=middle;whiteSpace=wrap;rounded=0;labelBackgroundColor=#ffffff;" parent="WKSHqu9oxkMPqmvNoZ5K-1" vertex="1">
          <mxGeometry x="80" y="381" width="120" height="20" as="geometry" />
        </mxCell>
        <mxCell id="Ch27QJfazuT4662C9EeC-29" value="Avoid Instruction" style="text;html=1;strokeColor=none;fillColor=none;align=right;verticalAlign=middle;whiteSpace=wrap;rounded=0;labelBackgroundColor=#ffffff;" parent="WKSHqu9oxkMPqmvNoZ5K-1" vertex="1">
          <mxGeometry x="80" y="401" width="120" height="20" as="geometry" />
        </mxCell>
        <UserObject label="&lt;i&gt;See: https://documentation.divio.com/&lt;/i&gt;" link="https://documentation.divio.com/" id="Ch27QJfazuT4662C9EeC-31">
          <mxCell style="text;whiteSpace=wrap;html=1;" parent="WKSHqu9oxkMPqmvNoZ5K-1" vertex="1">
            <mxGeometry x="439" y="460" width="240" height="20" as="geometry" />
          </mxCell>
        </UserObject>
        <mxCell id="7Sc8V4woxU20A6aRwfQR-0" value="&lt;font style=&quot;font-size: 12px&quot;&gt;Diagram: Base System Logical Module - Information - Documentation - Key Types &amp;amp; Attributes&lt;br&gt;&lt;/font&gt;" style="text;strokeColor=none;fillColor=none;html=1;fontSize=12;fontStyle=2;verticalAlign=middle;align=left;shadow=0;glass=0;comic=0;opacity=30;fontColor=#808080;" parent="WKSHqu9oxkMPqmvNoZ5K-1" vertex="1">
          <mxGeometry x="120" y="540" width="480" height="20" as="geometry" />
        </mxCell>
      </root>
    </mxGraphModel>
  </diagram>
</mxfile>
